<?xml version="1.0" encoding="UTF-8"?>
<svg id="Layer_1" xmlns="http://www.w3.org/2000/svg" version="1.1" xmlns:xlink="http://www.w3.org/1999/xlink" viewBox="0 0 595.28 841.89">
  <!-- Generator: Adobe Illustrator 29.3.1, SVG Export Plug-In . SVG Version: 2.1.0 Build 151)  -->
  <defs>
    <style>
      .st0 {
        fill: #2b3990;
        font-family: Kontora-ExtraBlack, Kontora;
        font-size: 69px;
        font-weight: 800;
      }

      .st1 {
        fill: url(#radial-gradient);
      }

      .st2 {
        fill: url(#radial-gradient1);
      }

      .st3 {
        fill: url(#radial-gradient2);
      }

      .st4 {
        fill: url(#radial-gradient3);
      }
    </style>
    <radialGradient id="radial-gradient" cx="285.66" cy="554.82" fx="285.66" fy="554.82" r="112.6" gradientUnits="userSpaceOnUse">
      <stop offset="0" stop-color="#2c2e84"/>
      <stop offset="1" stop-color="#455aa8"/>
    </radialGradient>
    <radialGradient id="radial-gradient1" cx="302.54" cy="511.73" fx="302.54" fy="511.73" r="70.38" gradientUnits="userSpaceOnUse">
      <stop offset="0" stop-color="#243a7a"/>
      <stop offset="1" stop-color="#283177"/>
    </radialGradient>
    <radialGradient id="radial-gradient2" cx="293.84" cy="578.13" fx="293.84" fy="578.13" r="58.06" gradientUnits="userSpaceOnUse">
      <stop offset="0" stop-color="#232162"/>
      <stop offset="1" stop-color="#4265b0"/>
    </radialGradient>
    <radialGradient id="radial-gradient3" cx="340.35" cy="563.91" fx="340.35" fy="563.91" r="93.54" gradientUnits="userSpaceOnUse">
      <stop offset="0" stop-color="#154ca1"/>
      <stop offset="1" stop-color="#1c3968"/>
    </radialGradient>
  </defs>
  <g>
    <text class="st0" transform="translate(180.06 741.55)"><tspan x="0" y="0">FOROZ</tspan></text>
    <text class="st0" transform="translate(180.06 741.55)"><tspan x="0" y="0">FOROZ</tspan></text>
  </g>
  <path class="st1" d="M241.89,658.59c18.38-1.48,14.91-18.67,18.12-32.11,1.98-8.28,6.72-15.02,14.41-18.87,3.68-1.84,8.77-3.39,12.81-2.68-.14,3.89.21,7.85.04,11.75-1.14,26.39-8.7,56.8-39.73,60.1h-64.2c.07-3.6-.08-7.23-.01-10.84.99-53.54-.59-107.19.34-160.7.2-11.26-.57-20.07,2.83-31.07,5.22-16.88,20.13-32.78,37.02-38.32,10.17-3.34,20.69-2.19,31.25-2.34,44-.64,88.09-.76,132.16-.66l1.08.48c-2.45,4.22-6.27,7.7-10.25,10.46-7.72,5.36-15.99,7.91-25.36,8.55h-114.9c-19.75,2.26-33.31,18.53-35.32,37.82l-.32,168.42h40.02Z"/>
  <path class="st2" d="M353.93,515.89c-24.01,15.38-50.75,11.69-77.82,14.62-22.65,2.45-38.86,9.15-51.9,28.46-.36.53-2.8,5.84-3.82,4.81-.37-2.12-1.2-4.34-1.55-6.46-2.19-13.35-1.28-29.39,5.93-41.11,16.56-26.89,56.59-26.69,84.33-29.62,24.35-2.57,52.45-6.13,72.01-22.16,1.51-1.24,3.16-3.27,4.69-4.41.35-.27.57-.58,1.11-.46.54.35.36.49.34.94-.72,22.13-15.06,43.69-33.33,55.39Z"/>
  <path class="st3" d="M257.56,599.71c-8.6,7.12-13.16,16.35-15.52,27.18-1.23.85-5.57-5.3-6.16-6.23-8.29-13.13-10.14-32.83-3.61-47.02,8.47-18.4,29.66-24.83,48.27-27.08,23.86-2.88,48.41-2.49,70.64-12.86,1.75-.82,7.01-4.14,8.19-4.38,2.01-.41.33,3.75.15,4.56-3.78,17.09-16.01,34.65-31.25,43.46-22.62,13.08-49.31,4.64-70.71,22.37Z"/>
  <path class="st4" d="M405.91,450.15c-.4,1.49.74,2.73.92,3.95,1.7,11.14.23,28.04.32,39.86.25,32.16.26,64.73.39,96.67.08,20.58,2.65,38.39-7.98,57.07-10.13,17.79-27.9,28.55-48.42,29.43-25.08,1.08-50.48-.46-75.68.29-.52.02-3.25.86-2.51-.62.32-.64,5.1-3.94,6.13-4.86,2.43-2.17,4.9-4.99,6.84-7.6.74-.99,2.58-4.49,3.42-4.74l50.8-.05c9.92-.54,19.01-.34,28.04-4.93,13.19-6.71,20.61-20.37,22.03-34.79v-118.35c8.87-13.38,13.35-28.6,14.43-44.59.15-2.22-.1-4.52,0-6.75h1.25Z"/>
</svg>